<?xml version="1.0" encoding="UTF-8" standalone="no"?>
<!-- Created with Inkscape (http://www.inkscape.org/) -->

<svg
   width="48"
   height="48"
   viewBox="0 0 48 48"
   version="1.1"
   id="svg1"
   xmlns="http://www.w3.org/2000/svg"
   xmlns:svg="http://www.w3.org/2000/svg">
  <defs
     id="defs1">
    <rect
       x="36.733501"
       y="2.5170707"
       width="71.736516"
       height="50.498731"
       id="rect5" />
  </defs>
  <g
     id="layer1">
    <path
       id="path1"
       style="fill:blue;stroke:#000000;stroke-width:2"
       d="M 47,24 A 23,23 0 0 1 24,47 23,23 0 0 1 1,24 23,23 0 0 1 24,1 23,23 0 0 1 47,24 Z" />
    <path
       d="m 22.876935,7.120874 q 4.48,0 6.528,1.76 2.048,1.76 2.048,4.96 0,1.888 -0.864,3.552 -0.832,1.632 -2.848,2.656 -1.984,1.024 -5.408,1.024 h -2.624 v 8.896 h -2.88 v -22.848 z m -0.256,2.464 h -2.912 v 9.024 h 2.304 q 3.264,0 4.864,-1.056 1.6,-1.056 1.6,-3.584 0,-2.208 -1.408,-3.296 -1.408,-1.088 -4.448,-1.088 z"
       id="text2"
       style="font-size:32px;stroke-width:2"
       aria-label="P" />
    <path
       d="m 44.982764,14.648243 4.746611,-0.356795 0.04497,0.598312 -4.214778,0.316818 0.155911,2.07415 -0.531833,0.03998 z m 1.054407,6.380309 1.294064,-0.908197 -0.449996,-1.832217 -1.56597,-0.198902 -0.144699,-0.589158 5.085683,0.666224 0.128798,0.524415 -4.200002,2.939942 z m 3.040306,-2.071611 q 0.04702,-0.03214 0.171853,-0.110855 0.124829,-0.07871 0.256132,-0.159014 0.139368,-0.07542 0.210698,-0.120396 -0.211832,0.004 -0.420371,-0.0066 -0.202065,-0.01216 -0.321668,-0.02397 l -1.527238,-0.180955 0.359361,1.463183 z m 2.101635,3.24563 q -0.314975,-0.698977 -0.963754,-0.889232 -0.64878,-0.190256 -1.46324,0.176759 -0.808382,0.364276 -1.115396,0.948674 -0.298198,0.587736 0.03869,1.335337 0.128729,0.285669 0.292388,0.519036 0.163659,0.233368 0.346152,0.443623 l -0.474089,0.213636 q -0.200727,-0.202039 -0.361047,-0.444223 -0.157581,-0.236106 -0.319177,-0.594712 -0.298542,-0.662509 -0.22497,-1.229458 0.07357,-0.56695 0.476711,-1.019168 0.405878,-0.446141 1.08662,-0.752899 0.656431,-0.295803 1.26165,-0.28335 0.614035,0.01579 1.104523,0.357813 0.496565,0.339281 0.797846,1.007868 0.309498,0.686821 0.284288,1.312412 l -0.560533,-0.01065 q 7.86e-4,-0.24166 -0.03857,-0.523727 -0.03662,-0.27599 -0.168088,-0.567737 z m -1.412988,5.893011 -1.492825,-2.201608 3.93972,-2.671373 1.492825,2.201609 -0.435907,0.295572 -1.156098,-1.705005 -1.230473,0.834336 1.088753,1.605684 -0.43039,0.291831 -1.088752,-1.605685 -1.407043,0.954062 1.156098,1.705005 z m 3.212156,3.415759 -0.423232,-0.425294 1.57359,-1.565957 -1.721142,-1.729531 -1.57359,1.565957 -0.423231,-0.425294 3.374002,-3.357638 0.423232,0.425295 -1.427099,1.420177 1.721142,1.72953 1.427099,-1.420177 0.423231,0.425294 z m 5.79731,1.058806 q -0.398159,0.623754 -0.909419,0.953859 -0.502054,0.328072 -1.077274,0.324712 -0.57522,-0.0034 -1.182116,-0.390757 -0.623755,-0.398159 -0.874588,-0.922091 -0.245214,-0.520346 -0.149791,-1.115889 0.09542,-0.595544 0.493583,-1.219299 0.394572,-0.618135 0.891006,-0.949794 0.496435,-0.331659 1.071655,-0.3283 0.580839,0.0069 1.210213,0.408693 0.601277,0.383811 0.846491,0.904156 0.248801,0.514726 0.158997,1.113857 -0.0806,0.597098 -0.478757,1.220853 z m -3.169348,-2.023079 q -0.484247,0.758621 -0.443728,1.401395 0.04411,0.637155 0.724054,1.071184 0.685569,0.437616 1.276456,0.205795 0.594475,-0.237442 1.078722,-0.996062 0.484248,-0.758621 0.442174,-1.386569 -0.03849,-0.633568 -0.718436,-1.067597 -0.679948,-0.434029 -1.282075,-0.209381 -0.592919,0.222615 -1.077167,0.981235 z m 2.877159,4.427032 1.758702,-4.423188 0.557545,0.221685 -1.561649,3.927592 1.932822,0.768509 -0.197053,0.495595 z m 7.485151,-0.399024 q -0.234425,1.183676 -1.001005,1.657103 -0.758746,0.468182 -1.909725,0.240233 l -1.30139,-0.257738 0.924748,-4.669311 1.438723,0.284936 q 0.706282,0.139878 1.171108,0.503782 0.464826,0.363905 0.645008,0.929689 0.181477,0.559246 0.03253,1.311306 z M 65.3434,34.471654 q 0.185209,-0.93517 -0.193626,-1.458744 -0.370999,-0.528818 -1.214614,-0.695895 l -0.765139,-0.151534 -0.725293,3.662205 0.634346,0.125631 q 1.896499,0.375598 2.264326,-1.481663 z m 3.876983,2.541685 -2.659869,-0.02652 0.04747,-4.759766 2.659869,0.02652 -0.0053,0.526641 -2.059899,-0.02054 -0.01483,1.486594 1.939905,0.01935 -0.0052,0.519974 -1.939905,-0.01934 -0.01695,1.699916 2.059899,0.02054 z m 1.590671,-4.987567 q 0.87541,-0.140836 1.344083,0.128136 0.474196,0.261331 0.582206,0.932698 0.06036,0.375176 -0.03762,0.647531 -0.09798,0.272354 -0.290836,0.458685 -0.187329,0.17869 -0.410516,0.302378 l 1.628933,1.898703 -0.691114,0.111186 -1.451073,-1.758507 -0.934649,0.150367 0.312381,1.9417 -0.592383,0.0953 -0.756068,-4.699573 z m 0.04968,0.518693 -0.671367,0.10801 0.280613,1.744239 0.704278,-0.113304 q 0.572637,-0.09213 0.799915,-0.358272 0.226219,-0.272728 0.155272,-0.713724 -0.07413,-0.460743 -0.381279,-0.607147 -0.308213,-0.152987 -0.887432,-0.0598 z"
       id="text4"
       style="font-size:6.66667px;stroke-width:2"
       transform="rotate(-38.869509,52.735347,79.237061)"
       aria-label="LACEHOLDER" />
    <text
       xml:space="preserve"
       id="text5"
       style="fill:none;text-orientation:auto;text-align:start;writing-mode:lr-tb;direction:ltr;stroke:none;stroke-opacity:1;stroke-width:2;stroke-dasharray:none;stroke-linecap:butt;paint-order:normal;font-size:6.66666667px;fill-opacity:1;white-space:pre;shape-inside:url(#rect5)" />
  </g>
</svg>
